<svg id="Layer_1" data-name="Layer 1" xmlns="http://www.w3.org/2000/svg" viewBox="0 0 48.5 48.5"><title>Actions</title><circle cx="24.25" cy="24.25" r="24.25" fill="#ad4559"/><path d="M19,19.54H33.43a1.12,1.12,0,0,1,1.14,1.14V23.9A1.12,1.12,0,0,1,33.43,25h-9" fill="none" stroke="#fff" stroke-linecap="round" stroke-linejoin="round" stroke-width="1.5"/><path d="M14.68,25a1.12,1.12,0,0,1-1.14-1.14V20.63a1.12,1.12,0,0,1,1.14-1.14H19" fill="none" stroke="#fff" stroke-linecap="round" stroke-linejoin="round" stroke-width="1.5"/><path d="M21.87,25H33.13V36.5A1.12,1.12,0,0,1,32,37.64H16.17A1.12,1.12,0,0,1,15,36.5V25h7.59" fill="none" stroke="#fff" stroke-linecap="round" stroke-linejoin="round" stroke-width="1.5"/><line x1="24.2" y1="26.73" x2="24.2" y2="37.59" fill="none" stroke="#fff" stroke-linecap="round" stroke-linejoin="round" stroke-width="1.5"/><line x1="24.05" y1="19.49" x2="24.2" y2="24.99" fill="none" stroke="#fff" stroke-linecap="round" stroke-linejoin="round" stroke-width="1.5"/><path d="M31.29,16.61a12.73,12.73,0,0,1-7.24,2.53s2.28-11.8,7-8.93C33.67,11.75,33.28,14.83,31.29,16.61Z" fill="none" stroke="#fff" stroke-linecap="round" stroke-linejoin="round" stroke-width="1.5"/><path d="M18.74,17.8a12.82,12.82,0,0,0,5.46,1.29s-2.28-11.8-7-8.93C13.93,12.15,15.32,16,18.74,17.8Z" fill="none" stroke="#fff" stroke-linecap="round" stroke-linejoin="round" stroke-width="1.5"/></svg>