<svg id="Layer_1" data-name="Layer 1" xmlns="http://www.w3.org/2000/svg" viewBox="0 0 44.69 33.11"><title>Mobile home page</title><g id="_Group_" data-name="&lt;Group&gt;"><path id="_Path_" data-name="&lt;Path&gt;" d="M36.17,24.48a3,3,0,0,1,3,3.56A4.33,4.33,0,0,1,35,31.61,3,3,0,0,1,32,28,4.38,4.38,0,0,1,36.17,24.48Z" fill="none" stroke="#72c064" stroke-linecap="round" stroke-linejoin="round" stroke-width="3"/><polyline id="_Path_2" data-name="&lt;Path&gt;" points="33.9 12.15 40.22 12.15 43.19 20.63 42.05 27.7" fill="none" stroke="#72c064" stroke-linecap="round" stroke-linejoin="round" stroke-width="3"/><path id="_Path_3" data-name="&lt;Path&gt;" d="M10,24.48A3,3,0,0,1,13,28a4.37,4.37,0,0,1-4.1,3.56,3,3,0,0,1-3-3.56A4.31,4.31,0,0,1,10,24.48Z" fill="none" stroke="#72c064" stroke-linecap="round" stroke-linejoin="round" stroke-width="3"/><line id="_Path_4" data-name="&lt;Path&gt;" x1="31.23" y1="27.7" x2="27.12" y2="27.7" fill="none" stroke="#72c064" stroke-linecap="round" stroke-linejoin="round" stroke-width="3"/><g id="_Group_2" data-name="&lt;Group&gt;"><polyline id="_Path_5" data-name="&lt;Path&gt;" points="9.85 10.12 15.71 19.79 34.1 2" fill="none" stroke="#72c064" stroke-linecap="round" stroke-linejoin="round" stroke-width="4"/></g><path id="_Path_6" data-name="&lt;Path&gt;" d="M32.1,14.5l-1.58,8.88A5,5,0,0,1,26,27.63H15.65" fill="none" stroke="#72c064" stroke-linecap="round" stroke-linejoin="round" stroke-width="3"/><path id="_Path_7" data-name="&lt;Path&gt;" d="M3.11,27.19a3.65,3.65,0,0,1-1.55-3.81L4.08,7.44A5,5,0,0,1,8.61,3.19H22.85" fill="none" stroke="#72c064" stroke-linecap="round" stroke-linejoin="round" stroke-width="3"/><line id="_Path_8" data-name="&lt;Path&gt;" x1="36.1" y1="19.86" x2="42.1" y2="19.86" fill="none" stroke="#72c064" stroke-linecap="round" stroke-linejoin="round" stroke-width="3"/></g></svg>